<?xml version="1.0" encoding="UTF-8"?>
<svg version="1.1" xmlns="http://www.w3.org/2000/svg" width="523" height="525">
<path d="M0 0 C172.59 0 345.18 0 523 0 C523 173.25 523 346.5 523 525 C350.41 525 177.82 525 0 525 C0 351.75 0 178.5 0 0 Z " fill="#FEFEFE" transform="translate(0,0)"/>
<path d="M0 0 C17.16 0 34.32 0 52 0 C50.46545551 3.83636122 48.96170584 6.94275526 46.8671875 10.4453125 C46.23345215 11.50943359 45.5997168 12.57355469 44.94677734 13.66992188 C44.60942566 14.23251709 44.27207397 14.7951123 43.92449951 15.37475586 C42.85868332 17.15221124 41.79721752 18.93220006 40.73681641 20.71289062 C39.24941572 23.20967441 37.76026055 25.70539748 36.26953125 28.20019531 C32.97199294 33.71957218 29.6838318 39.24449877 26.40142822 44.77288818 C25.40466617 46.45008245 24.40525412 48.12570093 23.40576172 49.80126953 C22.78459473 50.84653809 22.16342773 51.89180664 21.5234375 52.96875 C20.98638184 53.87044922 20.44932617 54.77214844 19.89599609 55.70117188 C17.18286097 60.42173352 14.60720823 65.22011824 12 70 C21.57 70 31.14 70 41 70 C36.68281218 76.78415229 32.36691279 83.50745888 27.8125 90.125 C27.25425537 90.938479 26.69601074 91.75195801 26.12084961 92.59008789 C21.49957638 99.30844236 16.8075962 105.97533236 12.09375 112.62890625 C3.54117468 124.70199859 -4.91384839 136.83962547 -13.24584961 149.06591797 C-17.25806216 154.94301326 -21.34669934 160.7620417 -25.46557617 166.56469727 C-29.89950324 172.8250062 -34.23458588 179.15089717 -38.54882812 185.49414062 C-41.64266478 190.0388259 -44.78708343 194.53860203 -48 199 C-49 197 -49 197 -48.50610352 195.25439453 C-48.21662842 194.55427246 -47.92715332 193.85415039 -47.62890625 193.1328125 C-47.30599609 192.3399585 -46.98308594 191.54710449 -46.65039062 190.73022461 C-46.29138672 189.87050049 -45.93238281 189.01077637 -45.5625 188.125 C-44.81353484 186.29568231 -44.06484442 184.46625211 -43.31640625 182.63671875 C-42.73656982 181.2297876 -42.73656982 181.2297876 -42.14501953 179.79443359 C-40.73064063 176.34262529 -39.35402813 172.87660693 -37.97973633 169.40869141 C-35.03547356 161.98237001 -32.00340203 154.6005883 -28.875 147.25 C-26.21188875 140.98731286 -23.71378232 134.69290821 -21.37207031 128.30371094 C-17.84833846 118.76525091 -13.88899225 109.3938517 -10 100 C-11.95679688 100.10828125 -11.95679688 100.10828125 -13.953125 100.21875 C-23.31177017 100.72106534 -32.62520768 101.1714901 -42 101 C-39.62303174 93.36335728 -36.60598697 86.0388109 -33.49414062 78.68066406 C-32.63034152 76.6376336 -31.77179318 74.59245952 -30.9140625 72.546875 C-28.54064762 66.90156019 -26.14962009 61.26936433 -23.5859375 55.70703125 C-19.85280432 47.58153199 -16.4575042 39.30786822 -13 31.0625 C-12.29441287 29.38340385 -11.58868454 27.70436702 -10.8828125 26.02539062 C-7.24003798 17.3565155 -3.61661587 8.67987809 0 0 Z " fill="#FDDD2D" transform="translate(162,162)"/>
<path d="M0 0 C0.99 0.66 1.98 1.32 3 2 C3 2.99 3 3.98 3 5 C5.19770393 4.52223828 7.13739267 3.93923486 9.19921875 3.02734375 C18.38749175 -0.99703328 29.90292373 -1.89956661 39.625 1 C44.21483566 3.71990262 47.54029679 6.17719823 50 11 C52.03566464 21.64915722 48.61246337 32.71342549 46 43 C41.05 43 36.1 43 31 43 C31 41.68 31 40.36 31 39 C30.40574219 39.28875 29.81148438 39.5775 29.19921875 39.875 C22.87071432 42.70954009 16.94540283 44.23153309 10 43 C7.6796875 41.59765625 7.6796875 41.59765625 6 40 C6 39.34 6 38.68 6 38 C5.38125 37.7525 4.7625 37.505 4.125 37.25 C1.51001756 35.71177504 0.93291754 34.87649576 0 32 C-0.0777346 29.66796188 -0.08967728 27.33160941 0 25 C-2.31 24.67 -4.62 24.34 -7 24 C-7 22.68 -7 21.36 -7 20 C-8.32 20 -9.64 20 -11 20 C-11.495 17.525 -11.495 17.525 -12 15 C-12.99 15.495 -12.99 15.495 -14 16 C-14.85060642 18.70796023 -14.85060642 18.70796023 -15.5078125 22.00390625 C-15.77207031 23.21884766 -16.03632813 24.43378906 -16.30859375 25.68554688 C-16.57800781 26.96494141 -16.84742188 28.24433594 -17.125 29.5625 C-17.40214844 30.84576172 -17.67929687 32.12902344 -17.96484375 33.45117188 C-18.65077979 36.63249594 -19.32635025 39.81605165 -20 43 C-25.94 43 -31.88 43 -38 43 C-37.67 41.68 -37.34 40.36 -37 39 C-38.65 39 -40.3 39 -42 39 C-40.68505365 30.74439162 -39.15420293 22.5560828 -37.4375 14.375 C-37.21642578 13.30121094 -36.99535156 12.22742188 -36.76757812 11.12109375 C-36.55423828 10.09886719 -36.34089844 9.07664062 -36.12109375 8.0234375 C-35.9295874 7.10481934 -35.73808105 6.18620117 -35.54077148 5.23974609 C-35 3 -35 3 -34 1 C-29.05 1 -24.1 1 -19 1 C-19 2.32 -19 3.64 -19 5 C-16.31591809 4.00305529 -14.08147533 3.05884329 -11.75 1.375 C-7.90794301 -0.5460285 -4.23064456 -0.61003676 0 0 Z " fill="#F47E14" transform="translate(342,254)"/>
<path d="M0 0 C5.94 0 11.88 0 18 0 C18 1.32 18 2.64 18 4 C19.32 4 20.64 4 22 4 C21.44176812 11.98692246 19.9257717 19.63212001 18.1875 27.4375 C17.64545347 29.91267726 17.10378846 32.3879381 16.5625 34.86328125 C16.29695313 36.07064941 16.03140625 37.27801758 15.7578125 38.52197266 C14.52755983 44.1682934 13.35912058 49.82748931 12.20581055 55.48999023 C11.10910516 60.78178968 11.10910516 60.78178968 10 63 C5.38 63 0.76 63 -4 63 C-4.33 61.68 -4.66 60.36 -5 59 C-5.52207031 59.28875 -6.04414063 59.5775 -6.58203125 59.875 C-12.61402174 62.91740501 -18.27160115 64.50399504 -25 63 C-29.29388596 60.37905662 -32.22679182 57.15981226 -35 53 C-35.96889474 43.21038818 -34.8031472 35.30595721 -30.25 26.6875 C-26.97453029 22.7751334 -23.75458037 20.42051055 -18.72265625 19.65234375 C-13.98999171 19.4712268 -10.84040043 19.99968716 -7 23 C-6.67 23.33 -6.34 23.66 -6 24 C-3.4340226 16.10188518 -1.67428834 8.13225763 0 0 Z " fill="#F47E14" transform="translate(286,234)"/>
<path d="M0 0 C2.48443664 1.07270992 3.92192035 2.18834082 6 4 C6 4.66 6 5.32 6 6 C7.32 6.66 8.64 7.32 10 8 C10.40781295 16.00899328 9.180596 23.31249968 7.5 31.125 C7.26152344 32.27226562 7.02304688 33.41953125 6.77734375 34.6015625 C6.19373236 37.40289716 5.5981048 40.20172396 5 43 C-0.94 43 -6.88 43 -13 43 C-13 41.68 -13 40.36 -13 39 C-14.32 39 -15.64 39 -17 39 C-16.24595285 30.55467195 -14.62171958 22.31258777 -13 14 C-13.99 14.495 -13.99 14.495 -15 15 C-15.85138395 17.80614506 -15.85138395 17.80614506 -16.5078125 21.22265625 C-16.77207031 22.48271484 -17.03632813 23.74277344 -17.30859375 25.04101562 C-17.58091259 26.38147317 -17.85304559 27.72196847 -18.125 29.0625 C-18.40416714 30.40706339 -18.68410526 31.75146695 -18.96484375 33.09570312 C-19.65083616 36.39556318 -20.32638484 39.6975911 -21 43 C-26.94 43 -32.88 43 -39 43 C-39 41.68 -39 40.36 -39 39 C-40.32 39 -41.64 39 -43 39 C-42.29244778 30.84075853 -40.63787499 22.9395529 -38.9375 14.9375 C-38.65260708 13.5814616 -38.36809891 12.22534232 -38.08398438 10.86914062 C-37.39309484 7.57863286 -36.69706424 4.28920525 -36 1 C-31.05 1 -26.1 1 -21 1 C-20.67 2.32 -20.34 3.64 -20 5 C-18.39125 4.319375 -18.39125 4.319375 -16.75 3.625 C-16.14671875 3.36976563 -15.5434375 3.11453125 -14.921875 2.8515625 C-12.96601746 2.01770371 -12.96601746 2.01770371 -11.0390625 0.921875 C-7.44825007 -0.70155744 -3.85301794 -0.55898706 0 0 Z " fill="#F47E15" transform="translate(241,254)"/>
<path d="M0 0 C0.66 0.33 1.32 0.66 2 1 C1.48446121 7.49850211 0.53332291 13.66226532 -1 20 C-4.3 20 -7.6 20 -11 20 C-11.495 17.525 -11.495 17.525 -12 15 C-12.99 15.495 -12.99 15.495 -14 16 C-14.85060642 18.70796023 -14.85060642 18.70796023 -15.5078125 22.00390625 C-15.77207031 23.21884766 -16.03632813 24.43378906 -16.30859375 25.68554688 C-16.57800781 26.96494141 -16.84742188 28.24433594 -17.125 29.5625 C-17.40214844 30.84576172 -17.67929687 32.12902344 -17.96484375 33.45117188 C-18.65077979 36.63249594 -19.32635025 39.81605165 -20 43 C-25.94 43 -31.88 43 -38 43 C-37.67 41.68 -37.34 40.36 -37 39 C-38.65 39 -40.3 39 -42 39 C-40.68505365 30.74439162 -39.15420293 22.5560828 -37.4375 14.375 C-37.21642578 13.30121094 -36.99535156 12.22742188 -36.76757812 11.12109375 C-36.55423828 10.09886719 -36.34089844 9.07664062 -36.12109375 8.0234375 C-35.9295874 7.10481934 -35.73808105 6.18620117 -35.54077148 5.23974609 C-35 3 -35 3 -34 1 C-29.05 1 -24.1 1 -19 1 C-19 2.32 -19 3.64 -19 5 C-16.31591809 4.00305529 -14.08147533 3.05884329 -11.75 1.375 C-7.87891646 -0.56054177 -4.26064045 -0.43527172 0 0 Z " fill="#F47E14" transform="translate(342,254)"/>
<path d="M0 0 C2.97 0 5.94 0 9 0 C7.40494227 5.38331984 5.03205607 10.20133451 2.5 15.1875 C1.83895264 16.49883911 1.83895264 16.49883911 1.16455078 17.83666992 C-4.12326757 28.28560171 -9.58393597 38.64435118 -15.125 48.9609375 C-15.45910889 49.58363525 -15.79321777 50.20633301 -16.13745117 50.84790039 C-16.78743252 52.05868147 -17.43860567 53.26882363 -18.09106445 54.47827148 C-19.85468955 57.76998284 -21.54283734 61.0867531 -23.16796875 64.44921875 C-23.52681152 65.18760986 -23.8856543 65.92600098 -24.25537109 66.68676758 C-24.94575756 68.11585162 -25.62748695 69.54915935 -26.29931641 70.98706055 C-27.12530744 72.69595568 -28.05537397 74.35371162 -29 76 C-30.485 76.495 -30.485 76.495 -32 77 C-30.16277297 71.10153427 -27.97352736 65.57895349 -25.36328125 59.98217773 C-24.16978546 57.3714057 -23.04209835 54.75164661 -21.94921875 52.09765625 C-19.44246884 46.04946929 -16.90274195 40.01560315 -14.35546875 33.984375 C-13.7295282 32.50213188 -13.7295282 32.50213188 -13.09094238 30.98994446 C-11.79002009 27.9098678 -10.48876721 24.82993095 -9.1875 21.75 C-8.29489543 19.63672992 -7.40231709 17.52344876 -6.50976562 15.41015625 C-4.34014619 10.27330969 -2.17017142 5.13661338 0 0 Z " fill="#F8D130" transform="translate(162,162)"/>
<path d="M0 0 C1.32 0 2.64 0 4 0 C3.44176812 7.98692246 1.9257717 15.63212001 0.1875 23.4375 C-0.35454653 25.91267726 -0.89621154 28.3879381 -1.4375 30.86328125 C-1.70304687 32.07064941 -1.96859375 33.27801758 -2.2421875 34.52197266 C-3.47244017 40.1682934 -4.64087942 45.82748931 -5.79418945 51.48999023 C-6.89089484 56.78178968 -6.89089484 56.78178968 -8 59 C-12.62 59 -17.24 59 -22 59 C-22.33 57.68 -22.66 56.36 -23 55 C-19.37 55 -15.74 55 -12 55 C-11.70867187 53.53175781 -11.41734375 52.06351562 -11.1171875 50.55078125 C-8.69282888 38.36086569 -6.23981164 26.17671133 -3.75 14 C-3.36303955 12.08634644 -3.36303955 12.08634644 -2.96826172 10.1340332 C-2.7260791 8.95542725 -2.48389648 7.77682129 -2.234375 6.5625 C-1.91291504 4.98662109 -1.91291504 4.98662109 -1.58496094 3.37890625 C-1 1 -1 1 0 0 Z " fill="#9E9A96" transform="translate(304,238)"/>
<path d="M0 0 C1.4540625 0.0309375 1.4540625 0.0309375 2.9375 0.0625 C1.52463344 4.60596314 -0.27756774 8.85685055 -2.3359375 13.13671875 C-2.99742589 14.52879431 -3.65888293 15.92088477 -4.3203125 17.31298828 C-4.66610352 18.03746155 -5.01189453 18.76193481 -5.36816406 19.50836182 C-12.87405252 35.2428804 -20.0793494 51.08894526 -27.0625 67.0625 C-27.7225 67.0625 -28.3825 67.0625 -29.0625 67.0625 C-29.0625 68.0525 -29.0625 69.0425 -29.0625 70.0625 C-29.7225 70.0625 -30.3825 70.0625 -31.0625 70.0625 C-29.0701334 63.85263416 -26.82928972 57.79095469 -24.375 51.75 C-23.66269005 49.98310128 -22.9504525 48.21617337 -22.23828125 46.44921875 C-21.87686035 45.55509277 -21.51543945 44.6609668 -21.14306641 43.73974609 C-19.4391782 39.51813785 -17.75152376 35.29007135 -16.0625 31.0625 C-15.73797852 30.25216309 -15.41345703 29.44182617 -15.07910156 28.60693359 C-13.31664902 24.20602175 -11.56187915 19.80220753 -9.81640625 15.39453125 C-9.26629883 14.00911133 -9.26629883 14.00911133 -8.70507812 12.59570312 C-7.9972458 10.81268245 -7.29144171 9.02885495 -6.58789062 7.24414062 C-6.27142578 6.44814453 -5.95496094 5.65214844 -5.62890625 4.83203125 C-5.34990479 4.12667236 -5.07090332 3.42131348 -4.78344727 2.69458008 C-3.52377504 -0.1570653 -3.37288138 0.06883431 0 0 Z " fill="#F8D132" transform="translate(156.0625,260.9375)"/>
<path d="M0 0 C0.33 0.99 0.66 1.98 1 3 C3.01508358 3.73323796 3.01508358 3.73323796 5 4 C5 5.65 5 7.3 5 9 C8.96 9.33 12.92 9.66 17 10 C17.66 8.35 18.32 6.7 19 5 C21.3260857 4.61936779 23.66055264 4.28730055 26 4 C27 5 27 5 27.09765625 7.06640625 C27.08605469 7.89011719 27.07445312 8.71382813 27.0625 9.5625 C27.05347656 10.38878906 27.04445313 11.21507812 27.03515625 12.06640625 C27.02355469 12.70449219 27.01195312 13.34257812 27 14 C25.865625 14.02578125 24.73125 14.0515625 23.5625 14.078125 C12.18753707 14.35161721 12.18753707 14.35161721 2 19 C1.52691406 19.53496094 1.05382812 20.06992187 0.56640625 20.62109375 C-2.24068102 23.09217057 -5.41429124 22.17634633 -9 22 C-9 20.68 -9 19.36 -9 18 C-7.02 18 -5.04 18 -3 18 C-2.814375 16.0509375 -2.814375 16.0509375 -2.625 14.0625 C-2.10136672 9.28150048 -1.13686165 4.66885899 0 0 Z " fill="#9D9995" transform="translate(344,256)"/>
<path d="M0 0 C-0.375 2.4375 -0.375 2.4375 -1 5 C-1.99 5.495 -1.99 5.495 -3 6 C-3.85138395 8.80614506 -3.85138395 8.80614506 -4.5078125 12.22265625 C-4.77207031 13.48271484 -5.03632813 14.74277344 -5.30859375 16.04101562 C-5.58091259 17.38147317 -5.85304559 18.72196847 -6.125 20.0625 C-6.40416714 21.40706339 -6.68410526 22.75146695 -6.96484375 24.09570312 C-7.65083616 27.39556318 -8.32638484 30.6975911 -9 34 C-14.94 34 -20.88 34 -27 34 C-27 32.68 -27 31.36 -27 30 C-22.38 30 -17.76 30 -13 30 C-12.87367188 28.71996094 -12.74734375 27.43992187 -12.6171875 26.12109375 C-12.0499218 21.04058251 -11.15353468 16.06777373 -10.125 11.0625 C-9.96386719 10.21365234 -9.80273438 9.36480469 -9.63671875 8.49023438 C-9.47042969 7.68005859 -9.30414063 6.86988281 -9.1328125 6.03515625 C-8.98730957 5.3069165 -8.84180664 4.57867676 -8.69189453 3.82836914 C-7.11095653 -0.34934599 -3.85343023 -0.20829353 0 0 Z " fill="#9E9B98" transform="translate(229,263)"/>
<path d="M0 0 C0.8971875 0.309375 0.8971875 0.309375 1.8125 0.625 C1.8125 1.945 1.8125 3.265 1.8125 4.625 C0.8225 5.12 0.8225 5.12 -0.1875 5.625 C-1.03810642 8.33296023 -1.03810642 8.33296023 -1.6953125 11.62890625 C-1.95957031 12.84384766 -2.22382813 14.05878906 -2.49609375 15.31054688 C-2.76550781 16.58994141 -3.03492188 17.86933594 -3.3125 19.1875 C-3.58964844 20.47076172 -3.86679687 21.75402344 -4.15234375 23.07617188 C-4.83827979 26.25749594 -5.51385025 29.44105165 -6.1875 32.625 C-12.1275 32.625 -18.0675 32.625 -24.1875 32.625 C-23.8575 31.305 -23.5275 29.985 -23.1875 28.625 C-18.8975 28.625 -14.6075 28.625 -10.1875 28.625 C-9.919375 26.954375 -9.65125 25.28375 -9.375 23.5625 C-8.98348698 21.24926464 -8.58719828 18.93683511 -8.1875 16.625 C-8.0750293 15.96226074 -7.96255859 15.29952148 -7.84667969 14.61669922 C-7.49502093 12.57504404 -7.12470557 10.53753872 -6.75 8.5 C-6.52441406 7.23929687 -6.29882812 5.97859375 -6.06640625 4.6796875 C-5.04589206 1.13283373 -3.95078053 -0.67727666 0 0 Z " fill="#9E9A95" transform="translate(328.1875,264.375)"/>
<path d="M0 0 C0.99 0.66 1.98 1.32 3 2 C4.49206341 9.52726859 2.07850248 17.78709656 0.5 25.125 C0.14228516 26.84589844 0.14228516 26.84589844 -0.22265625 28.6015625 C-0.80626764 31.40289716 -1.4018952 34.20172396 -2 37 C-7.94 37 -13.88 37 -20 37 C-20 35.68 -20 34.36 -20 33 C-15.38 33 -10.76 33 -6 33 C-5.9175 31.865625 -5.835 30.73125 -5.75 29.5625 C-5.14799547 23.99395807 -3.81027533 18.63038736 -2.45996094 13.20532227 C-1.3769537 8.81205786 -0.56572958 4.49047853 0 0 Z " fill="#9D9A98" transform="translate(248,260)"/>
<path d="M0 0 C4.81145382 4.12519258 4.81145382 4.12519258 5.62890625 7.91796875 C5.42449612 17.98216141 3.47115027 27.26984579 1 37 C-3.95 37 -8.9 37 -14 37 C-14 35.68 -14 34.36 -14 33 C-10.37 33 -6.74 33 -3 33 C-2.87625 31.88625 -2.7525 30.7725 -2.625 29.625 C-2.24815378 26.4955379 -1.66159181 23.50333552 -0.9375 20.4375 C0.48835664 13.68844526 0.16463009 6.85958693 0 0 Z " fill="#A09A95" transform="translate(387,260)"/>
<path d="M0 0 C2.625 0.375 2.625 0.375 5 1 C5.53333333 15.4 5.53333333 15.4 1.73828125 20.79296875 C-0.58294938 22.40478957 -2.23739676 22.22399486 -5 22 C-5.3332882 14.59359564 -5.24523844 8.7401106 -2 2 C-1.34 1.34 -0.68 0.68 0 0 Z " fill="#9D9996" transform="translate(274,263)"/>
<path d="M0 0 C0.33 0.99 0.66 1.98 1 3 C3.01508358 3.73323796 3.01508358 3.73323796 5 4 C5.20716286 7.72893152 4.7261971 9.73940548 3 13 C2.67 14.19625 2.34 15.3925 2 16.625 C1 20 1 20 -1 22 C-3.68839385 22.26991906 -6.29141936 22.08737357 -9 22 C-9 20.68 -9 19.36 -9 18 C-7.02 18 -5.04 18 -3 18 C-2.814375 16.0509375 -2.814375 16.0509375 -2.625 14.0625 C-2.10136672 9.28150048 -1.13686165 4.66885899 0 0 Z " fill="#A59E98" transform="translate(344,256)"/>
<path d="M0 0 C0.3125 3.1875 0.3125 3.1875 0 7 C-2.5 9.9375 -2.5 9.9375 -5 12 C-7.475 11.01 -7.475 11.01 -10 10 C-10.3125 7.25 -10.3125 7.25 -10 4 C-6.84563621 0.57526217 -4.63891191 -0.53016136 0 0 Z " fill="#A19891" transform="translate(369,274)"/>
<path d="M0 0 C0.33 0.66 0.66 1.32 1 2 C1.66 2 2.32 2 3 2 C1.4189413 12.42250537 -0.78040993 22.69937811 -3 33 C-3.99 32.67 -4.98 32.34 -6 32 C-5.26734562 25.06083669 -3.89372905 18.32021002 -2.4375 11.5 C-2.20353516 10.39140625 -1.96957031 9.2828125 -1.72851562 8.140625 C-1.1552633 5.42645073 -0.57902176 2.71294824 0 0 Z " fill="#F7EFE9" transform="translate(304,257)"/>
<path d="M0 0 C0.66 0 1.32 0 2 0 C2.33 1.98 2.66 3.96 3 6 C-2.40409964 9.50536193 -7.73946924 9.92784777 -14 9 C-16.6875 7 -16.6875 7 -18 5 C-17.27554687 4.96261719 -16.55109375 4.92523438 -15.8046875 4.88671875 C-7.20185785 4.41145231 -7.20185785 4.41145231 0 0 Z " fill="#A39D98" transform="translate(366,288)"/>
<path d="M0 0 C0.33 1.98 0.66 3.96 1 6 C-4.40409964 9.50536193 -9.73946924 9.92784777 -16 9 C-18.6875 7 -18.6875 7 -20 5 C-19.28714844 4.97421875 -18.57429688 4.9484375 -17.83984375 4.921875 C-11.54512001 4.54910536 -5.37383763 0 0 0 Z " fill="#A19B95" transform="translate(277,288)"/>
<path d="M0 0 C1.40305736 2.80611472 0.66161338 4.39740142 0.00390625 7.4453125 C-0.22490234 8.52167969 -0.45371094 9.59804688 -0.68945312 10.70703125 C-0.93630859 11.83496094 -1.18316406 12.96289062 -1.4375 14.125 C-1.68048828 15.26066406 -1.92347656 16.39632813 -2.17382812 17.56640625 C-2.77651846 20.37896117 -3.38549188 23.19000762 -4 26 C-4.99 25.67 -5.98 25.34 -7 25 C-6.52113751 19.44519512 -5.70148354 14.03509431 -4.625 8.5625 C-4.39039063 7.36753906 -4.15578125 6.17257812 -3.9140625 4.94140625 C-3 2 -3 2 0 0 Z " fill="#F8F2ED" transform="translate(228,267)"/>
<path d="M0 0 C0.33 0 0.66 0 1 0 C0.5242622 5.52106237 0.01274568 10.80923483 -2 16 C-4.07421875 17.19140625 -4.07421875 17.19140625 -6 18 C-5.60312845 11.07527573 -5.15469364 5.15469364 0 0 Z " fill="#F6EEE7" transform="translate(278,267)"/>
<path d="M0 0 C1.98 0 3.96 0 6 0 C5.67 1.32 5.34 2.64 5 4 C5.66 4.33 6.32 4.66 7 5 C4.36 5.99 1.72 6.98 -1 8 C-0.67 5.36 -0.34 2.72 0 0 Z " fill="#F9F3EE" transform="translate(347,266)"/>
<path d="M0 0 C0.99 0 1.98 0 3 0 C3 1.98 3 3.96 3 6 C1.02 6 -0.96 6 -3 6 C-2.42655063 3.13275314 -2.1385485 2.1385485 0 0 Z " fill="#F8F7F6" transform="translate(368,264)"/>
<path d="M0 0 C0.33 0.99 0.66 1.98 1 3 C-0.25 5.1875 -0.25 5.1875 -2 7 C-2.99 7 -3.98 7 -5 7 C-4.60196439 4.11424181 -4.20990931 3.17810487 -1.9375 1.25 C-1.298125 0.8375 -0.65875 0.425 0 0 Z " fill="#F6EDE5" transform="translate(368,278)"/>
<path d="M0 0 C1.32 0.33 2.64 0.66 4 1 C2.02 3.97 0.04 6.94 -2 10 C-3 8 -3 8 -2.44140625 6.0546875 C-2.15136719 5.33539063 -1.86132812 4.61609375 -1.5625 3.875 C-1.27503906 3.15054687 -0.98757812 2.42609375 -0.69140625 1.6796875 C-0.46324219 1.12539063 -0.23507813 0.57109375 0 0 Z " fill="#FDE152" transform="translate(116,351)"/>
<path d="M0 0 C1.32 0.33 2.64 0.66 4 1 C3.67 2.98 3.34 4.96 3 7 C2.01 6.67 1.02 6.34 0 6 C0 4.02 0 2.04 0 0 Z " fill="#F4EDE7" transform="translate(221,286)"/>
</svg>
